<?xml version="1.0" encoding="utf-8" standalone="no"?>
<!DOCTYPE svg PUBLIC "-//W3C//DTD SVG 1.1//EN"
  "http://www.w3.org/Graphics/SVG/1.1/DTD/svg11.dtd">
<!-- Created with matplotlib (http://matplotlib.org/) -->
<svg height="252pt" version="1.1" viewBox="0 0 379 252" width="379pt" xmlns="http://www.w3.org/2000/svg" xmlns:xlink="http://www.w3.org/1999/xlink">
 <defs>
  <style type="text/css">
*{stroke-linecap:square;stroke-linejoin:round;}
  </style>
 </defs>
 <g id="figure_1">
  <g id="patch_1">
   <path d="
M0 252.946
L379.806 252.946
L379.806 0
L0 0
z
" style="fill:#ffffff;"/>
  </g>
  <g id="axes_1">
   <g id="patch_2">
    <path d="
M32.1422 234.182
L366.942 234.182
L366.942 10.982
L32.1422 10.982
z
" style="fill:#ffffff;"/>
   </g>
   <g id="patch_3">
    <path clip-path="url(#p92a2503c99)" d="
M32.1422 234.182
L44.4769 234.182
L44.4769 150.659
L32.1422 150.659
z
" style="fill:#ff0000;stroke:#000000;"/>
   </g>
   <g id="patch_4">
    <path clip-path="url(#p92a2503c99)" d="
M49.7632 234.182
L62.098 234.182
L62.098 173.384
L49.7632 173.384
z
" style="fill:#ff0000;stroke:#000000;"/>
   </g>
   <g id="patch_5">
    <path clip-path="url(#p92a2503c99)" d="
M67.3843 234.182
L79.719 234.182
L79.719 177.135
L67.3843 177.135
z
" style="fill:#ff0000;stroke:#000000;"/>
   </g>
   <g id="patch_6">
    <path clip-path="url(#p92a2503c99)" d="
M85.0053 234.182
L97.3401 234.182
L97.3401 181.841
L85.0053 181.841
z
" style="fill:#ff0000;stroke:#000000;"/>
   </g>
   <g id="patch_7">
    <path clip-path="url(#p92a2503c99)" d="
M102.626 234.182
L114.961 234.182
L114.961 176.983
L102.626 176.983
z
" style="fill:#ff0000;stroke:#000000;"/>
   </g>
   <g id="patch_8">
    <path clip-path="url(#p92a2503c99)" d="
M120.247 234.182
L132.582 234.182
L132.582 190.24
L120.247 190.24
z
" style="fill:#ff0000;stroke:#000000;"/>
   </g>
   <g id="patch_9">
    <path clip-path="url(#p92a2503c99)" d="
M137.869 234.182
L150.203 234.182
L150.203 186.815
L137.869 186.815
z
" style="fill:#ff0000;stroke:#000000;"/>
   </g>
   <g id="patch_10">
    <path clip-path="url(#p92a2503c99)" d="
M155.49 234.182
L167.824 234.182
L167.824 177.501
L155.49 177.501
z
" style="fill:#ff0000;stroke:#000000;"/>
   </g>
   <g id="patch_11">
    <path clip-path="url(#p92a2503c99)" d="
M173.111 234.182
L185.445 234.182
L185.445 173.074
L173.111 173.074
z
" style="fill:#ff0000;stroke:#000000;"/>
   </g>
   <g id="patch_12">
    <path clip-path="url(#p92a2503c99)" d="
M190.732 234.182
L203.066 234.182
L203.066 177.84
L190.732 177.84
z
" style="fill:#ff0000;stroke:#000000;"/>
   </g>
   <g id="patch_13">
    <path clip-path="url(#p92a2503c99)" d="
M208.353 234.182
L220.687 234.182
L220.687 181.683
L208.353 181.683
z
" style="fill:#ff0000;stroke:#000000;"/>
   </g>
   <g id="patch_14">
    <path clip-path="url(#p92a2503c99)" d="
M225.974 234.182
L238.309 234.182
L238.309 177.136
L225.974 177.136
z
" style="fill:#ff0000;stroke:#000000;"/>
   </g>
   <g id="patch_15">
    <path clip-path="url(#p92a2503c99)" d="
M243.595 234.182
L255.93 234.182
L255.93 181.481
L243.595 181.481
z
" style="fill:#ff0000;stroke:#000000;"/>
   </g>
   <g id="patch_16">
    <path clip-path="url(#p92a2503c99)" d="
M261.216 234.182
L273.551 234.182
L273.551 186.526
L261.216 186.526
z
" style="fill:#ff0000;stroke:#000000;"/>
   </g>
   <g id="patch_17">
    <path clip-path="url(#p92a2503c99)" d="
M278.837 234.182
L291.172 234.182
L291.172 182.786
L278.837 182.786
z
" style="fill:#ff0000;stroke:#000000;"/>
   </g>
   <g id="patch_18">
    <path clip-path="url(#p92a2503c99)" d="
M296.458 234.182
L308.793 234.182
L308.793 177.801
L296.458 177.801
z
" style="fill:#ff0000;stroke:#000000;"/>
   </g>
   <g id="patch_19">
    <path clip-path="url(#p92a2503c99)" d="
M314.079 234.182
L326.414 234.182
L326.414 186.478
L314.079 186.478
z
" style="fill:#ff0000;stroke:#000000;"/>
   </g>
   <g id="patch_20">
    <path clip-path="url(#p92a2503c99)" d="
M331.7 234.182
L344.035 234.182
L344.035 177.762
L331.7 177.762
z
" style="fill:#ff0000;stroke:#000000;"/>
   </g>
   <g id="patch_21">
    <path clip-path="url(#p92a2503c99)" d="
M349.321 234.182
L361.656 234.182
L361.656 172.735
L349.321 172.735
z
" style="fill:#ff0000;stroke:#000000;"/>
   </g>
   <g id="patch_22">
    <path clip-path="url(#p92a2503c99)" d="
M366.942 234.182
L379.277 234.182
L379.277 177.78
L366.942 177.78
z
" style="fill:#ff0000;stroke:#000000;"/>
   </g>
   <g id="LineCollection_1">
    <defs>
     <path d="
M38.3096 -101.988
L38.3096 -102.586" id="C0_0_45aad42c0a"/>
     <path d="
M55.9306 -79.3441
L55.9306 -79.7804" id="C0_1_c7741d9737"/>
     <path d="
M73.5517 -75.6166
L73.5517 -76.0052" id="C0_2_50e0c81c2a"/>
     <path d="
M91.1727 -70.9201
L91.1727 -71.2904" id="C0_3_fcccfc73e1"/>
     <path d="
M108.794 -75.7671
L108.794 -76.1599" id="C0_4_9af7bb982a"/>
     <path d="
M126.415 -62.5487
L126.415 -62.8627" id="C0_5_5fa742386f"/>
     <path d="
M144.036 -65.9401
L144.036 -66.3225" id="C0_6_87e6409332"/>
     <path d="
M161.657 -75.2227
L161.657 -75.6669" id="C0_7_eb492238c1"/>
     <path d="
M179.278 -79.6562
L179.278 -80.0884" id="C0_8_fb62d2d305"/>
     <path d="
M196.899 -74.8966
L196.899 -75.316" id="C0_9_212481146b"/>
     <path d="
M214.52 -71.0814
L214.52 -71.4441" id="C0_a_a0a5c6c19e"/>
     <path d="
M232.141 -75.6165
L232.141 -76.0036" id="C0_b_ed8ba0e49c"/>
     <path d="
M249.762 -71.2719
L249.762 -71.6582" id="C0_c_be0cc9fefc"/>
     <path d="
M267.383 -66.2398
L267.383 -66.5998" id="C0_d_db253bd742"/>
     <path d="
M285.004 -69.9543
L285.004 -70.3653" id="C0_e_5037091456"/>
     <path d="
M302.625 -74.9279
L302.625 -75.3625" id="C0_f_136f5b03a2"/>
     <path d="
M320.246 -66.303
L320.246 -66.633" id="C0_10_6f485c2f8a"/>
     <path d="
M337.867 -74.9714
L337.867 -75.3961" id="C0_11_777fc6cdeb"/>
     <path d="
M355.489 -79.9912
L355.489 -80.4312" id="C0_12_da814f6298"/>
     <path d="
M373.11 -75.1663
L373.11 -75.1663" id="C0_13_edc2c85248"/>
    </defs>
    <g clip-path="url(#p92a2503c99)">
     <use style="fill:none;stroke:#0000ff;stroke-linecap:butt;" x="0" xlink:href="#C0_0_45aad42c0a" y="252.94609375"/>
    </g>
    <g clip-path="url(#p92a2503c99)">
     <use style="fill:none;stroke:#0000ff;stroke-linecap:butt;" x="0" xlink:href="#C0_1_c7741d9737" y="252.94609375"/>
    </g>
    <g clip-path="url(#p92a2503c99)">
     <use style="fill:none;stroke:#0000ff;stroke-linecap:butt;" x="0" xlink:href="#C0_2_50e0c81c2a" y="252.94609375"/>
    </g>
    <g clip-path="url(#p92a2503c99)">
     <use style="fill:none;stroke:#0000ff;stroke-linecap:butt;" x="0" xlink:href="#C0_3_fcccfc73e1" y="252.94609375"/>
    </g>
    <g clip-path="url(#p92a2503c99)">
     <use style="fill:none;stroke:#0000ff;stroke-linecap:butt;" x="0" xlink:href="#C0_4_9af7bb982a" y="252.94609375"/>
    </g>
    <g clip-path="url(#p92a2503c99)">
     <use style="fill:none;stroke:#0000ff;stroke-linecap:butt;" x="0" xlink:href="#C0_5_5fa742386f" y="252.94609375"/>
    </g>
    <g clip-path="url(#p92a2503c99)">
     <use style="fill:none;stroke:#0000ff;stroke-linecap:butt;" x="0" xlink:href="#C0_6_87e6409332" y="252.94609375"/>
    </g>
    <g clip-path="url(#p92a2503c99)">
     <use style="fill:none;stroke:#0000ff;stroke-linecap:butt;" x="0" xlink:href="#C0_7_eb492238c1" y="252.94609375"/>
    </g>
    <g clip-path="url(#p92a2503c99)">
     <use style="fill:none;stroke:#0000ff;stroke-linecap:butt;" x="0" xlink:href="#C0_8_fb62d2d305" y="252.94609375"/>
    </g>
    <g clip-path="url(#p92a2503c99)">
     <use style="fill:none;stroke:#0000ff;stroke-linecap:butt;" x="0" xlink:href="#C0_9_212481146b" y="252.94609375"/>
    </g>
    <g clip-path="url(#p92a2503c99)">
     <use style="fill:none;stroke:#0000ff;stroke-linecap:butt;" x="0" xlink:href="#C0_a_a0a5c6c19e" y="252.94609375"/>
    </g>
    <g clip-path="url(#p92a2503c99)">
     <use style="fill:none;stroke:#0000ff;stroke-linecap:butt;" x="0" xlink:href="#C0_b_ed8ba0e49c" y="252.94609375"/>
    </g>
    <g clip-path="url(#p92a2503c99)">
     <use style="fill:none;stroke:#0000ff;stroke-linecap:butt;" x="0" xlink:href="#C0_c_be0cc9fefc" y="252.94609375"/>
    </g>
    <g clip-path="url(#p92a2503c99)">
     <use style="fill:none;stroke:#0000ff;stroke-linecap:butt;" x="0" xlink:href="#C0_d_db253bd742" y="252.94609375"/>
    </g>
    <g clip-path="url(#p92a2503c99)">
     <use style="fill:none;stroke:#0000ff;stroke-linecap:butt;" x="0" xlink:href="#C0_e_5037091456" y="252.94609375"/>
    </g>
    <g clip-path="url(#p92a2503c99)">
     <use style="fill:none;stroke:#0000ff;stroke-linecap:butt;" x="0" xlink:href="#C0_f_136f5b03a2" y="252.94609375"/>
    </g>
    <g clip-path="url(#p92a2503c99)">
     <use style="fill:none;stroke:#0000ff;stroke-linecap:butt;" x="0" xlink:href="#C0_10_6f485c2f8a" y="252.94609375"/>
    </g>
    <g clip-path="url(#p92a2503c99)">
     <use style="fill:none;stroke:#0000ff;stroke-linecap:butt;" x="0" xlink:href="#C0_11_777fc6cdeb" y="252.94609375"/>
    </g>
    <g clip-path="url(#p92a2503c99)">
     <use style="fill:none;stroke:#0000ff;stroke-linecap:butt;" x="0" xlink:href="#C0_12_da814f6298" y="252.94609375"/>
    </g>
    <g clip-path="url(#p92a2503c99)">
     <use style="fill:none;stroke:#0000ff;stroke-linecap:butt;" x="0" xlink:href="#C0_13_edc2c85248" y="252.94609375"/>
    </g>
   </g>
   <g id="line2d_1">
    <defs>
     <path d="
M3 1.83697e-16
L-3 -1.83697e-16" id="me29dd97fba" style="stroke:#0000ff;stroke-linecap:butt;stroke-width:0.5;"/>
    </defs>
    <g clip-path="url(#p92a2503c99)">
     <use style="fill:#0000ff;stroke:#0000ff;stroke-linecap:butt;stroke-width:0.5;" x="38.3095559211" xlink:href="#me29dd97fba" y="150.958041615"/>
     <use style="fill:#0000ff;stroke:#0000ff;stroke-linecap:butt;stroke-width:0.5;" x="55.9306085526" xlink:href="#me29dd97fba" y="173.601982166"/>
     <use style="fill:#0000ff;stroke:#0000ff;stroke-linecap:butt;stroke-width:0.5;" x="73.5516611842" xlink:href="#me29dd97fba" y="177.329495175"/>
     <use style="fill:#0000ff;stroke:#0000ff;stroke-linecap:butt;stroke-width:0.5;" x="91.1727138158" xlink:href="#me29dd97fba" y="182.025992482"/>
     <use style="fill:#0000ff;stroke:#0000ff;stroke-linecap:butt;stroke-width:0.5;" x="108.793766447" xlink:href="#me29dd97fba" y="177.179018719"/>
     <use style="fill:#0000ff;stroke:#0000ff;stroke-linecap:butt;stroke-width:0.5;" x="126.414819079" xlink:href="#me29dd97fba" y="190.397420923"/>
     <use style="fill:#0000ff;stroke:#0000ff;stroke-linecap:butt;stroke-width:0.5;" x="144.035871711" xlink:href="#me29dd97fba" y="187.00599209"/>
     <use style="fill:#0000ff;stroke:#0000ff;stroke-linecap:butt;stroke-width:0.5;" x="161.656924342" xlink:href="#me29dd97fba" y="177.723411416"/>
     <use style="fill:#0000ff;stroke:#0000ff;stroke-linecap:butt;stroke-width:0.5;" x="179.277976974" xlink:href="#me29dd97fba" y="173.289850551"/>
     <use style="fill:#0000ff;stroke:#0000ff;stroke-linecap:butt;stroke-width:0.5;" x="196.899029605" xlink:href="#me29dd97fba" y="178.049451292"/>
     <use style="fill:#0000ff;stroke:#0000ff;stroke-linecap:butt;stroke-width:0.5;" x="214.520082237" xlink:href="#me29dd97fba" y="181.864676487"/>
     <use style="fill:#0000ff;stroke:#0000ff;stroke-linecap:butt;stroke-width:0.5;" x="232.141134868" xlink:href="#me29dd97fba" y="177.329546575"/>
     <use style="fill:#0000ff;stroke:#0000ff;stroke-linecap:butt;stroke-width:0.5;" x="249.7621875" xlink:href="#me29dd97fba" y="181.674153172"/>
     <use style="fill:#0000ff;stroke:#0000ff;stroke-linecap:butt;stroke-width:0.5;" x="267.383240132" xlink:href="#me29dd97fba" y="186.706332577"/>
     <use style="fill:#0000ff;stroke:#0000ff;stroke-linecap:butt;stroke-width:0.5;" x="285.004292763" xlink:href="#me29dd97fba" y="182.991760875"/>
     <use style="fill:#0000ff;stroke:#0000ff;stroke-linecap:butt;stroke-width:0.5;" x="302.625345395" xlink:href="#me29dd97fba" y="178.018213484"/>
     <use style="fill:#0000ff;stroke:#0000ff;stroke-linecap:butt;stroke-width:0.5;" x="320.246398026" xlink:href="#me29dd97fba" y="186.643073723"/>
     <use style="fill:#0000ff;stroke:#0000ff;stroke-linecap:butt;stroke-width:0.5;" x="337.867450658" xlink:href="#me29dd97fba" y="177.974736612"/>
     <use style="fill:#0000ff;stroke:#0000ff;stroke-linecap:butt;stroke-width:0.5;" x="355.488503289" xlink:href="#me29dd97fba" y="172.954878424"/>
     <use style="fill:#0000ff;stroke:#0000ff;stroke-linecap:butt;stroke-width:0.5;" x="373.109555921" xlink:href="#me29dd97fba" y="177.779838097"/>
    </g>
   </g>
   <g id="line2d_2">
    <g clip-path="url(#p92a2503c99)">
     <use style="fill:#0000ff;stroke:#0000ff;stroke-linecap:butt;stroke-width:0.5;" x="38.3095559211" xlink:href="#me29dd97fba" y="150.360166061"/>
     <use style="fill:#0000ff;stroke:#0000ff;stroke-linecap:butt;stroke-width:0.5;" x="55.9306085526" xlink:href="#me29dd97fba" y="173.16569075"/>
     <use style="fill:#0000ff;stroke:#0000ff;stroke-linecap:butt;stroke-width:0.5;" x="73.5516611842" xlink:href="#me29dd97fba" y="176.940874337"/>
     <use style="fill:#0000ff;stroke:#0000ff;stroke-linecap:butt;stroke-width:0.5;" x="91.1727138158" xlink:href="#me29dd97fba" y="181.655689353"/>
     <use style="fill:#0000ff;stroke:#0000ff;stroke-linecap:butt;stroke-width:0.5;" x="108.793766447" xlink:href="#me29dd97fba" y="176.786229574"/>
     <use style="fill:#0000ff;stroke:#0000ff;stroke-linecap:butt;stroke-width:0.5;" x="126.414819079" xlink:href="#me29dd97fba" y="190.083363522"/>
     <use style="fill:#0000ff;stroke:#0000ff;stroke-linecap:butt;stroke-width:0.5;" x="144.035871711" xlink:href="#me29dd97fba" y="186.62356957"/>
     <use style="fill:#0000ff;stroke:#0000ff;stroke-linecap:butt;stroke-width:0.5;" x="161.656924342" xlink:href="#me29dd97fba" y="177.279170906"/>
     <use style="fill:#0000ff;stroke:#0000ff;stroke-linecap:butt;stroke-width:0.5;" x="179.277976974" xlink:href="#me29dd97fba" y="172.857675946"/>
     <use style="fill:#0000ff;stroke:#0000ff;stroke-linecap:butt;stroke-width:0.5;" x="196.899029605" xlink:href="#me29dd97fba" y="177.630080348"/>
     <use style="fill:#0000ff;stroke:#0000ff;stroke-linecap:butt;stroke-width:0.5;" x="214.520082237" xlink:href="#me29dd97fba" y="181.501996542"/>
     <use style="fill:#0000ff;stroke:#0000ff;stroke-linecap:butt;stroke-width:0.5;" x="232.141134868" xlink:href="#me29dd97fba" y="176.942534665"/>
     <use style="fill:#0000ff;stroke:#0000ff;stroke-linecap:butt;stroke-width:0.5;" x="249.7621875" xlink:href="#me29dd97fba" y="181.287914539"/>
     <use style="fill:#0000ff;stroke:#0000ff;stroke-linecap:butt;stroke-width:0.5;" x="267.383240132" xlink:href="#me29dd97fba" y="186.346244579"/>
     <use style="fill:#0000ff;stroke:#0000ff;stroke-linecap:butt;stroke-width:0.5;" x="285.004292763" xlink:href="#me29dd97fba" y="182.580829307"/>
     <use style="fill:#0000ff;stroke:#0000ff;stroke-linecap:butt;stroke-width:0.5;" x="302.625345395" xlink:href="#me29dd97fba" y="177.583592892"/>
     <use style="fill:#0000ff;stroke:#0000ff;stroke-linecap:butt;stroke-width:0.5;" x="320.246398026" xlink:href="#me29dd97fba" y="186.313081935"/>
     <use style="fill:#0000ff;stroke:#0000ff;stroke-linecap:butt;stroke-width:0.5;" x="337.867450658" xlink:href="#me29dd97fba" y="177.549971284"/>
     <use style="fill:#0000ff;stroke:#0000ff;stroke-linecap:butt;stroke-width:0.5;" x="355.488503289" xlink:href="#me29dd97fba" y="172.514869334"/>
     <use style="fill:#0000ff;stroke:#0000ff;stroke-linecap:butt;stroke-width:0.5;" x="373.109555921" xlink:href="#me29dd97fba" y="177.779838097"/>
    </g>
   </g>
   <g id="line2d_3">
    <path clip-path="url(#p92a2503c99)" d="
M32.1422 178.382
L49.7632 178.382
L67.3843 178.382
L85.0053 178.382
L102.626 178.382
L120.247 178.382
L137.869 178.382
L155.49 178.382
L173.111 178.382
L190.732 178.382
L208.353 178.382
L225.974 178.382
L243.595 178.382
L261.216 178.382
L278.837 178.382
L296.458 178.382
L314.079 178.382
L331.7 178.382
L349.321 178.382
L366.942 178.382" style="fill:none;stroke:#0000bf;"/>
   </g>
   <g id="matplotlib.axis_1">
    <g id="xtick_1">
     <g id="line2d_4">
      <defs>
       <path d="
M0 0
L0 -4" id="mcb557df647" style="stroke:#000000;stroke-linecap:butt;stroke-width:0.5;"/>
      </defs>
      <g>
       <use style="stroke:#000000;stroke-linecap:butt;stroke-width:0.5;" x="102.626398026" xlink:href="#mcb557df647" y="234.18203125"/>
      </g>
     </g>
     <g id="line2d_5">
      <defs>
       <path d="
M0 0
L0 4" id="mdad270ee8e" style="stroke:#000000;stroke-linecap:butt;stroke-width:0.5;"/>
      </defs>
      <g>
       <use style="stroke:#000000;stroke-linecap:butt;stroke-width:0.5;" x="102.626398026" xlink:href="#mdad270ee8e" y="10.98203125"/>
      </g>
     </g>
     <g id="text_1">
      <!-- 5 -->
      <defs>
       <path d="
M10.7969 72.9062
L49.5156 72.9062
L49.5156 64.5938
L19.8281 64.5938
L19.8281 46.7344
Q21.9688 47.4688 24.1094 47.8281
Q26.2656 48.1875 28.4219 48.1875
Q40.625 48.1875 47.75 41.5
Q54.8906 34.8125 54.8906 23.3906
Q54.8906 11.625 47.5625 5.09375
Q40.2344 -1.42188 26.9062 -1.42188
Q22.3125 -1.42188 17.5469 -0.640625
Q12.7969 0.140625 7.71875 1.70312
L7.71875 11.625
Q12.1094 9.23438 16.7969 8.0625
Q21.4844 6.89062 26.7031 6.89062
Q35.1562 6.89062 40.0781 11.3281
Q45.0156 15.7656 45.0156 23.3906
Q45.0156 31 40.0781 35.4375
Q35.1562 39.8906 26.7031 39.8906
Q22.75 39.8906 18.8125 39.0156
Q14.8906 38.1406 10.7969 36.2812
z
" id="DejaVuSans-35"/>
      </defs>
      <g transform="translate(100.267804276 245.47265625)scale(0.1 -0.1)">
       <use xlink:href="#DejaVuSans-35"/>
      </g>
     </g>
    </g>
    <g id="xtick_2">
     <g id="line2d_6">
      <g>
       <use style="stroke:#000000;stroke-linecap:butt;stroke-width:0.5;" x="190.731661184" xlink:href="#mcb557df647" y="234.18203125"/>
      </g>
     </g>
     <g id="line2d_7">
      <g>
       <use style="stroke:#000000;stroke-linecap:butt;stroke-width:0.5;" x="190.731661184" xlink:href="#mdad270ee8e" y="10.98203125"/>
      </g>
     </g>
     <g id="text_2">
      <!-- 10 -->
      <defs>
       <path d="
M12.4062 8.29688
L28.5156 8.29688
L28.5156 63.9219
L10.9844 60.4062
L10.9844 69.3906
L28.4219 72.9062
L38.2812 72.9062
L38.2812 8.29688
L54.3906 8.29688
L54.3906 0
L12.4062 0
z
" id="DejaVuSans-31"/>
       <path d="
M31.7812 66.4062
Q24.1719 66.4062 20.3281 58.9062
Q16.5 51.4219 16.5 36.375
Q16.5 21.3906 20.3281 13.8906
Q24.1719 6.39062 31.7812 6.39062
Q39.4531 6.39062 43.2812 13.8906
Q47.125 21.3906 47.125 36.375
Q47.125 51.4219 43.2812 58.9062
Q39.4531 66.4062 31.7812 66.4062
M31.7812 74.2188
Q44.0469 74.2188 50.5156 64.5156
Q56.9844 54.8281 56.9844 36.375
Q56.9844 17.9688 50.5156 8.26562
Q44.0469 -1.42188 31.7812 -1.42188
Q19.5312 -1.42188 13.0625 8.26562
Q6.59375 17.9688 6.59375 36.375
Q6.59375 54.8281 13.0625 64.5156
Q19.5312 74.2188 31.7812 74.2188" id="DejaVuSans-30"/>
      </defs>
      <g transform="translate(185.250411184 245.60390625)scale(0.1 -0.1)">
       <use xlink:href="#DejaVuSans-31"/>
       <use x="63.623046875" xlink:href="#DejaVuSans-30"/>
      </g>
     </g>
    </g>
    <g id="xtick_3">
     <g id="line2d_8">
      <g>
       <use style="stroke:#000000;stroke-linecap:butt;stroke-width:0.5;" x="278.836924342" xlink:href="#mcb557df647" y="234.18203125"/>
      </g>
     </g>
     <g id="line2d_9">
      <g>
       <use style="stroke:#000000;stroke-linecap:butt;stroke-width:0.5;" x="278.836924342" xlink:href="#mdad270ee8e" y="10.98203125"/>
      </g>
     </g>
     <g id="text_3">
      <!-- 15 -->
      <g transform="translate(273.460361842 245.47265625)scale(0.1 -0.1)">
       <use xlink:href="#DejaVuSans-31"/>
       <use x="63.623046875" xlink:href="#DejaVuSans-35"/>
      </g>
     </g>
    </g>
    <g id="xtick_4">
     <g id="line2d_10">
      <g>
       <use style="stroke:#000000;stroke-linecap:butt;stroke-width:0.5;" x="366.9421875" xlink:href="#mcb557df647" y="234.18203125"/>
      </g>
     </g>
     <g id="line2d_11">
      <g>
       <use style="stroke:#000000;stroke-linecap:butt;stroke-width:0.5;" x="366.9421875" xlink:href="#mdad270ee8e" y="10.98203125"/>
      </g>
     </g>
     <g id="text_4">
      <!-- 20 -->
      <defs>
       <path d="
M19.1875 8.29688
L53.6094 8.29688
L53.6094 0
L7.32812 0
L7.32812 8.29688
Q12.9375 14.1094 22.625 23.8906
Q32.3281 33.6875 34.8125 36.5312
Q39.5469 41.8438 41.4219 45.5312
Q43.3125 49.2188 43.3125 52.7812
Q43.3125 58.5938 39.2344 62.25
Q35.1562 65.9219 28.6094 65.9219
Q23.9688 65.9219 18.8125 64.3125
Q13.6719 62.7031 7.8125 59.4219
L7.8125 69.3906
Q13.7656 71.7812 18.9375 73
Q24.125 74.2188 28.4219 74.2188
Q39.75 74.2188 46.4844 68.5469
Q53.2188 62.8906 53.2188 53.4219
Q53.2188 48.9219 51.5312 44.8906
Q49.8594 40.875 45.4062 35.4062
Q44.1875 33.9844 37.6406 27.2188
Q31.1094 20.4531 19.1875 8.29688" id="DejaVuSans-32"/>
      </defs>
      <g transform="translate(361.278125 245.60390625)scale(0.1 -0.1)">
       <use xlink:href="#DejaVuSans-32"/>
       <use x="63.623046875" xlink:href="#DejaVuSans-30"/>
      </g>
     </g>
    </g>
   </g>
   <g id="matplotlib.axis_2">
    <g id="ytick_1">
     <g id="line2d_12">
      <defs>
       <path d="
M0 0
L4 0" id="mc8fcea1516" style="stroke:#000000;stroke-linecap:butt;stroke-width:0.5;"/>
      </defs>
      <g>
       <use style="stroke:#000000;stroke-linecap:butt;stroke-width:0.5;" x="32.1421875" xlink:href="#mc8fcea1516" y="234.18203125"/>
      </g>
     </g>
     <g id="line2d_13">
      <defs>
       <path d="
M0 0
L-4 0" id="m0d5b0a6425" style="stroke:#000000;stroke-linecap:butt;stroke-width:0.5;"/>
      </defs>
      <g>
       <use style="stroke:#000000;stroke-linecap:butt;stroke-width:0.5;" x="366.9421875" xlink:href="#m0d5b0a6425" y="234.18203125"/>
      </g>
     </g>
     <g id="text_5">
      <!-- 0.00 -->
      <defs>
       <path d="
M10.6875 12.4062
L21 12.4062
L21 0
L10.6875 0
z
" id="DejaVuSans-2e"/>
      </defs>
      <g transform="translate(7.2 237.821875)scale(0.1 -0.1)">
       <use xlink:href="#DejaVuSans-30"/>
       <use x="63.623046875" xlink:href="#DejaVuSans-2e"/>
       <use x="95.41015625" xlink:href="#DejaVuSans-30"/>
       <use x="159.033203125" xlink:href="#DejaVuSans-30"/>
      </g>
     </g>
    </g>
    <g id="ytick_2">
     <g id="line2d_14">
      <g>
       <use style="stroke:#000000;stroke-linecap:butt;stroke-width:0.5;" x="32.1421875" xlink:href="#mc8fcea1516" y="178.38203125"/>
      </g>
     </g>
     <g id="line2d_15">
      <g>
       <use style="stroke:#000000;stroke-linecap:butt;stroke-width:0.5;" x="366.9421875" xlink:href="#m0d5b0a6425" y="178.38203125"/>
      </g>
     </g>
     <g id="text_6">
      <!-- 0.05 -->
      <g transform="translate(7.409375 182.021875)scale(0.1 -0.1)">
       <use xlink:href="#DejaVuSans-30"/>
       <use x="63.623046875" xlink:href="#DejaVuSans-2e"/>
       <use x="95.41015625" xlink:href="#DejaVuSans-30"/>
       <use x="159.033203125" xlink:href="#DejaVuSans-35"/>
      </g>
     </g>
    </g>
    <g id="ytick_3">
     <g id="line2d_16">
      <g>
       <use style="stroke:#000000;stroke-linecap:butt;stroke-width:0.5;" x="32.1421875" xlink:href="#mc8fcea1516" y="122.58203125"/>
      </g>
     </g>
     <g id="line2d_17">
      <g>
       <use style="stroke:#000000;stroke-linecap:butt;stroke-width:0.5;" x="366.9421875" xlink:href="#m0d5b0a6425" y="122.58203125"/>
      </g>
     </g>
     <g id="text_7">
      <!-- 0.10 -->
      <g transform="translate(7.2 126.221875)scale(0.1 -0.1)">
       <use xlink:href="#DejaVuSans-30"/>
       <use x="63.623046875" xlink:href="#DejaVuSans-2e"/>
       <use x="95.41015625" xlink:href="#DejaVuSans-31"/>
       <use x="159.033203125" xlink:href="#DejaVuSans-30"/>
      </g>
     </g>
    </g>
    <g id="ytick_4">
     <g id="line2d_18">
      <g>
       <use style="stroke:#000000;stroke-linecap:butt;stroke-width:0.5;" x="32.1421875" xlink:href="#mc8fcea1516" y="66.78203125"/>
      </g>
     </g>
     <g id="line2d_19">
      <g>
       <use style="stroke:#000000;stroke-linecap:butt;stroke-width:0.5;" x="366.9421875" xlink:href="#m0d5b0a6425" y="66.78203125"/>
      </g>
     </g>
     <g id="text_8">
      <!-- 0.15 -->
      <g transform="translate(7.409375 70.421875)scale(0.1 -0.1)">
       <use xlink:href="#DejaVuSans-30"/>
       <use x="63.623046875" xlink:href="#DejaVuSans-2e"/>
       <use x="95.41015625" xlink:href="#DejaVuSans-31"/>
       <use x="159.033203125" xlink:href="#DejaVuSans-35"/>
      </g>
     </g>
    </g>
    <g id="ytick_5">
     <g id="line2d_20">
      <g>
       <use style="stroke:#000000;stroke-linecap:butt;stroke-width:0.5;" x="32.1421875" xlink:href="#mc8fcea1516" y="10.98203125"/>
      </g>
     </g>
     <g id="line2d_21">
      <g>
       <use style="stroke:#000000;stroke-linecap:butt;stroke-width:0.5;" x="366.9421875" xlink:href="#m0d5b0a6425" y="10.98203125"/>
      </g>
     </g>
     <g id="text_9">
      <!-- 0.20 -->
      <g transform="translate(7.2 14.621875)scale(0.1 -0.1)">
       <use xlink:href="#DejaVuSans-30"/>
       <use x="63.623046875" xlink:href="#DejaVuSans-2e"/>
       <use x="95.41015625" xlink:href="#DejaVuSans-32"/>
       <use x="159.033203125" xlink:href="#DejaVuSans-30"/>
      </g>
     </g>
    </g>
   </g>
   <g id="patch_23">
    <path d="
M32.1422 10.982
L366.942 10.982" style="fill:none;stroke:#000000;"/>
   </g>
   <g id="patch_24">
    <path d="
M366.942 234.182
L366.942 10.982" style="fill:none;stroke:#000000;"/>
   </g>
   <g id="patch_25">
    <path d="
M32.1422 234.182
L366.942 234.182" style="fill:none;stroke:#000000;"/>
   </g>
   <g id="patch_26">
    <path d="
M32.1422 234.182
L32.1422 10.982" style="fill:none;stroke:#000000;"/>
   </g>
   <g id="legend_1">
    <g id="patch_27">
     <path d="
M274.805 53.4845
L360.942 53.4845
L360.942 16.982
L274.805 16.982
L274.805 53.4845
z
" style="fill:#ffffff;stroke:#000000;"/>
    </g>
    <g id="patch_28">
     <path d="
M279.605 30.9002
L303.605 30.9002
L303.605 22.5002
L279.605 22.5002
z
" style="fill:#ff0000;stroke:#000000;"/>
    </g>
    <g id="text_10">
     <!-- Real -->
     <defs>
      <path d="
M44.3906 34.1875
Q47.5625 33.1094 50.5625 29.5938
Q53.5625 26.0781 56.5938 19.9219
L66.6094 0
L56 0
L46.6875 18.7031
Q43.0625 26.0312 39.6719 28.4219
Q36.2812 30.8125 30.4219 30.8125
L19.6719 30.8125
L19.6719 0
L9.8125 0
L9.8125 72.9062
L32.0781 72.9062
Q44.5781 72.9062 50.7344 67.6719
Q56.8906 62.4531 56.8906 51.9062
Q56.8906 45.0156 53.6875 40.4688
Q50.4844 35.9375 44.3906 34.1875
M19.6719 64.7969
L19.6719 38.9219
L32.0781 38.9219
Q39.2031 38.9219 42.8438 42.2188
Q46.4844 45.5156 46.4844 51.9062
Q46.4844 58.2969 42.8438 61.5469
Q39.2031 64.7969 32.0781 64.7969
z
" id="DejaVuSans-52"/>
      <path d="
M56.2031 29.5938
L56.2031 25.2031
L14.8906 25.2031
Q15.4844 15.9219 20.4844 11.0625
Q25.4844 6.20312 34.4219 6.20312
Q39.5938 6.20312 44.4531 7.46875
Q49.3125 8.73438 54.1094 11.2812
L54.1094 2.78125
Q49.2656 0.734375 44.1875 -0.34375
Q39.1094 -1.42188 33.8906 -1.42188
Q20.7969 -1.42188 13.1562 6.1875
Q5.51562 13.8125 5.51562 26.8125
Q5.51562 40.2344 12.7656 48.1094
Q20.0156 56 32.3281 56
Q43.3594 56 49.7812 48.8906
Q56.2031 41.7969 56.2031 29.5938
M47.2188 32.2344
Q47.125 39.5938 43.0938 43.9844
Q39.0625 48.3906 32.4219 48.3906
Q24.9062 48.3906 20.3906 44.1406
Q15.875 39.8906 15.1875 32.1719
z
" id="DejaVuSans-65"/>
      <path d="
M9.42188 75.9844
L18.4062 75.9844
L18.4062 0
L9.42188 0
z
" id="DejaVuSans-6c"/>
      <path d="
M34.2812 27.4844
Q23.3906 27.4844 19.1875 25
Q14.9844 22.5156 14.9844 16.5
Q14.9844 11.7188 18.1406 8.90625
Q21.2969 6.10938 26.7031 6.10938
Q34.1875 6.10938 38.7031 11.4062
Q43.2188 16.7031 43.2188 25.4844
L43.2188 27.4844
z

M52.2031 31.2031
L52.2031 0
L43.2188 0
L43.2188 8.29688
Q40.1406 3.32812 35.5469 0.953125
Q30.9531 -1.42188 24.3125 -1.42188
Q15.9219 -1.42188 10.9531 3.29688
Q6 8.01562 6 15.9219
Q6 25.1406 12.1719 29.8281
Q18.3594 34.5156 30.6094 34.5156
L43.2188 34.5156
L43.2188 35.4062
Q43.2188 41.6094 39.1406 45
Q35.0625 48.3906 27.6875 48.3906
Q23 48.3906 18.5469 47.2656
Q14.1094 46.1406 10.0156 43.8906
L10.0156 52.2031
Q14.9375 54.1094 19.5781 55.0469
Q24.2188 56 28.6094 56
Q40.4844 56 46.3438 49.8438
Q52.2031 43.7031 52.2031 31.2031" id="DejaVuSans-61"/>
     </defs>
     <g transform="translate(313.2046875 30.90015625)scale(0.12 -0.12)">
      <use xlink:href="#DejaVuSans-52"/>
      <use x="64.982421875" xlink:href="#DejaVuSans-65"/>
      <use x="126.505859375" xlink:href="#DejaVuSans-61"/>
      <use x="187.78515625" xlink:href="#DejaVuSans-6c"/>
     </g>
    </g>
    <g id="line2d_22">
     <path d="
M283.205 44.3139
L300.005 44.3139" style="fill:none;stroke:#0000bf;"/>
    </g>
    <g id="line2d_23"/>
    <g id="text_11">
     <!-- Fair die -->
     <defs>
      <path d="
M45.4062 46.3906
L45.4062 75.9844
L54.3906 75.9844
L54.3906 0
L45.4062 0
L45.4062 8.20312
Q42.5781 3.32812 38.25 0.953125
Q33.9375 -1.42188 27.875 -1.42188
Q17.9688 -1.42188 11.7344 6.48438
Q5.51562 14.4062 5.51562 27.2969
Q5.51562 40.1875 11.7344 48.0938
Q17.9688 56 27.875 56
Q33.9375 56 38.25 53.625
Q42.5781 51.2656 45.4062 46.3906
M14.7969 27.2969
Q14.7969 17.3906 18.875 11.75
Q22.9531 6.10938 30.0781 6.10938
Q37.2031 6.10938 41.2969 11.75
Q45.4062 17.3906 45.4062 27.2969
Q45.4062 37.2031 41.2969 42.8438
Q37.2031 48.4844 30.0781 48.4844
Q22.9531 48.4844 18.875 42.8438
Q14.7969 37.2031 14.7969 27.2969" id="DejaVuSans-64"/>
      <path d="
M9.8125 72.9062
L51.7031 72.9062
L51.7031 64.5938
L19.6719 64.5938
L19.6719 43.1094
L48.5781 43.1094
L48.5781 34.8125
L19.6719 34.8125
L19.6719 0
L9.8125 0
z
" id="DejaVuSans-46"/>
      <path d="
M41.1094 46.2969
Q39.5938 47.1719 37.8125 47.5781
Q36.0312 48 33.8906 48
Q26.2656 48 22.1875 43.0469
Q18.1094 38.0938 18.1094 28.8125
L18.1094 0
L9.07812 0
L9.07812 54.6875
L18.1094 54.6875
L18.1094 46.1875
Q20.9531 51.1719 25.4844 53.5781
Q30.0312 56 36.5312 56
Q37.4531 56 38.5781 55.875
Q39.7031 55.7656 41.0625 55.5156
z
" id="DejaVuSans-72"/>
      <path id="DejaVuSans-20"/>
      <path d="
M9.42188 54.6875
L18.4062 54.6875
L18.4062 0
L9.42188 0
z

M9.42188 75.9844
L18.4062 75.9844
L18.4062 64.5938
L9.42188 64.5938
z
" id="DejaVuSans-69"/>
     </defs>
     <g transform="translate(313.2046875 48.51390625)scale(0.12 -0.12)">
      <use xlink:href="#DejaVuSans-46"/>
      <use x="48.39453125" xlink:href="#DejaVuSans-61"/>
      <use x="109.673828125" xlink:href="#DejaVuSans-69"/>
      <use x="137.45703125" xlink:href="#DejaVuSans-72"/>
      <use x="178.5703125" xlink:href="#DejaVuSans-20"/>
      <use x="210.357421875" xlink:href="#DejaVuSans-64"/>
      <use x="273.833984375" xlink:href="#DejaVuSans-69"/>
      <use x="301.6171875" xlink:href="#DejaVuSans-65"/>
     </g>
    </g>
   </g>
  </g>
 </g>
 <defs>
  <clipPath id="p92a2503c99">
   <rect height="223.2" width="334.8" x="32.1421875" y="10.98203125"/>
  </clipPath>
 </defs>
</svg>
